<?xml version="1.0" encoding="utf-8"?><!-- Uploaded to: SVG Repo, www.svgrepo.com, Generator: SVG Repo Mixer Tools -->
<svg fill="#000000" width="800px" height="800px" viewBox="0 0 24 24" id="curve-arrow-left-8" data-name="Flat Color" xmlns="http://www.w3.org/2000/svg" class="icon flat-color"><path id="primary" d="M22,17.68A14.14,14.14,0,0,0,8.51,8H5.41l1.3-1.29A1,1,0,0,0,5.29,5.29l-3,3a1,1,0,0,0,0,1.42l3,3a1,1,0,0,0,1.42,0,1,1,0,0,0,0-1.42L5.41,10h3.1a12.14,12.14,0,0,1,11.54,8.32A1,1,0,0,0,21,19a1.25,1.25,0,0,0,.32-.05A1,1,0,0,0,22,17.68Z" style="fill: rgb(0, 0, 0);"></path></svg>