<?xml version="1.0" encoding="utf-8"?><!-- Uploaded to: SVG Repo, www.svgrepo.com, Generator: SVG Repo Mixer Tools -->
<svg fill="#000000" width="800px" height="800px" viewBox="0 0 24 24" id="curve-arrow-right-7" data-name="Flat Color" xmlns="http://www.w3.org/2000/svg" class="icon flat-color"><path id="primary" d="M21.71,8.29l-3-3a1,1,0,0,0-1.42,1.42L18.59,8h-3.1A14.14,14.14,0,0,0,2.05,17.68,1,1,0,0,0,2.68,19,1.25,1.25,0,0,0,3,19a1,1,0,0,0,1-.68A12.14,12.14,0,0,1,15.49,10h3.1l-1.3,1.29a1,1,0,0,0,0,1.42,1,1,0,0,0,1.42,0l3-3A1,1,0,0,0,21.71,8.29Z" style="fill: rgb(0, 0, 0);"></path></svg>